<?xml version="1.0"?>
<svg xmlns="http://www.w3.org/2000/svg" xmlns:xlink="http://www.w3.org/1999/xlink" xmlns:svgjs="http://svgjs.com/svgjs" version="1.1" width="512" height="512" x="0" y="0" viewBox="0 0 511.999 511.999" style="enable-background:new 0 0 512 512" xml:space="preserve"><g>
<g xmlns="http://www.w3.org/2000/svg">
	<g>
		<g>
			<circle cx="169.552" cy="192.508" r="4.189" fill="#ffffff" data-original="#000000" style=""/>
			<circle cx="342.138" cy="356.623" r="4.189" fill="#ffffff" data-original="#000000" style=""/>
			<path d="M502.569,303.081c3.138-7.33,4.805-15.283,4.805-23.295c0-26.249-17.326-49.155-41.987-56.61     c-2.744-21.79-17.622-40.582-38.259-48.196c-6.245-26.251-30.153-45.481-57.554-45.481c-5.12,0-10.2,0.663-15.13,1.966     c-2.506-0.386-5.07-0.587-7.682-0.587c-1.868,0-3.723,0.106-5.56,0.31c-10.888-9.881-24.798-15.289-39.626-15.289     c-17.452,0-34.06,7.826-45.249,21.102c-0.882-0.009-1.762-0.032-2.646-0.032c-1.468,0-2.932,0.025-4.397,0.054     c-10.758-17.342-29.565-27.924-50.223-27.924c-22.391,0-42.746,12.641-52.771,32.47c-4.717,1.957-9.107,4.618-13.019,7.866     c-5.133-1.425-10.43-2.153-15.805-2.153c-27.407,0-50.737,18.427-57.319,44.51c-24.38,7.598-41.583,30.566-41.583,56.483     c0,7.594,1.421,14.933,4.197,21.881c-2.847,5.689-4.639,11.981-5.129,18.62C6.391,299.627,0,314.554,0,330.274     c0,22.783,13.121,43.049,33.666,52.433c7.01,12.06,20.064,20.192,34.99,20.192h370.054c11.218,0,21.382-4.594,28.717-11.996     c25.983-6.019,44.573-29.214,44.573-56.148C512,323.142,508.57,312.23,502.569,303.081z M454.28,248.001     c0,3.089-0.403,6.104-1.182,9c-8.179-15.423-18.21-29.943-29.967-43.299C440.585,215.375,454.28,230.117,454.28,248.001z      M438.894,201.526c-3.858-1.589-7.956-2.707-12.223-3.292c-1.364-2.928-2.961-5.719-4.776-8.353     C428.509,192.361,434.306,196.411,438.894,201.526z M411.767,178.638c-4.815-4.104-10.31-7.413-16.274-9.763     c-1.978-7.869-5.822-15.001-11.025-20.91C397.869,152.929,408.379,164.367,411.767,178.638z M408.986,198.945     c-0.009,0.002-0.02,0.004-0.031,0.006c-4.03-3.832-8.176-7.5-12.433-10.998c0.041-0.296,0.095-0.589,0.13-0.886     C401.526,190.137,405.732,194.184,408.986,198.945z M346.763,146.664c17.332,0,31.709,12.863,34.104,29.542     c-15.563-10.676-32.309-19.29-49.904-25.694C335.795,148.013,341.198,146.664,346.763,146.664z M301.578,131.685     c7.486,0,14.655,1.881,21.003,5.419c-2.766,1.522-5.397,3.298-7.849,5.33c-1.949,0.341-3.885,0.78-5.792,1.319     c-9.927-2.49-20.067-4.293-30.357-5.417C285.406,134.065,293.362,131.685,301.578,131.685z M199.063,124.885     c12.023,0,23.183,4.905,31.225,13.286c-13.005,1.332-25.769,3.774-38.181,7.275c-7.214-4.555-15.377-7.15-23.936-7.617     C176.176,129.699,187.233,124.885,199.063,124.885z M165.363,153.53c0.976,0,1.944,0.044,2.905,0.123     c-10.788,4.413-21.226,9.672-31.235,15.745c-0.182-0.043-0.363-0.092-0.545-0.133C142.747,159.695,153.582,153.53,165.363,153.53     z M117.469,163.068c1.401,0,2.794,0.073,4.178,0.206c-0.875,1.534-1.675,3.119-2.387,4.755     c-17.691,1.357-33.24,10.664-42.888,24.54C82.187,175.123,98.49,163.068,117.469,163.068z M115.118,184.529     c-7.271,5.686-14.242,11.852-20.872,18.482c-3.828,3.828-7.494,7.773-11.01,11.819     C87.253,199.449,99.668,187.749,115.118,184.529z M68.545,205.892c0.367-0.079,0.721-0.188,1.066-0.316     c-1.071,2.926-1.925,5.963-2.519,9.102c-15.397,7.601-26.794,21.904-30.712,38.628c-0.528,0.423-1.046,0.858-1.556,1.302     c-0.302-2.08-0.47-4.19-0.47-6.331C34.354,227.982,48.733,210.157,68.545,205.892z M70.598,230.781     c-2.77,3.834-5.421,7.739-7.932,11.72c-1.681,0.171-3.337,0.423-4.966,0.757C61.042,238.254,65.436,233.975,70.598,230.781z      M28.233,360.11c-7.832-7.698-12.448-18.324-12.448-29.836c0-7.027,1.764-13.835,5.02-19.871     c2.302,6.015,5.762,11.57,10.209,16.338C29.284,337.687,28.347,348.833,28.233,360.11z M35.594,304.889     c-1.519-3.923-2.324-8.13-2.324-12.416c0-13.152,7.487-24.656,18.418-30.455C44.867,275.705,39.481,290.058,35.594,304.889z      M438.71,387.113H68.656c-13.601,0-24.666-11.065-24.666-24.666c0-115.624,94.068-209.691,209.692-209.691     s209.691,94.067,209.691,209.691C463.374,376.048,452.31,387.113,438.71,387.113z M491.589,279.786     c0,3.356-0.406,6.695-1.171,9.945c-4.642-3.711-9.896-6.738-15.638-8.9c0.107-1.434,0.161-2.873,0.161-4.311     c0-8.279-1.732-16.237-5.117-23.703c0.155-1.598,0.242-3.203,0.242-4.816c0-1.989-0.129-3.948-0.355-5.877     C482.915,249.67,491.589,263.887,491.589,279.786z M478.646,368.866c0.335-2.091,0.515-4.234,0.515-6.418     c0-23.012-3.435-45.494-10.043-66.872c16.18,6.057,27.097,21.509,27.097,39.18C496.214,348.672,489.381,361.214,478.646,368.866z     " fill="#ffffff" data-original="#000000" style=""/>
			<circle cx="398.208" cy="231.154" r="4.19" fill="#ffffff" data-original="#000000" style=""/>
			<circle cx="318.798" cy="202.037" r="4.189" fill="#ffffff" data-original="#000000" style=""/>
			<circle cx="370.634" cy="280.918" r="4.19" fill="#ffffff" data-original="#000000" style=""/>
			<circle cx="277.503" cy="314.271" r="4.189" fill="#ffffff" data-original="#000000" style=""/>
			<circle cx="98.611" cy="244.389" r="4.19" fill="#ffffff" data-original="#000000" style=""/>
			<circle cx="126.626" cy="306.86" r="4.19" fill="#ffffff" data-original="#000000" style=""/>
			<circle cx="181.776" cy="348.152" r="4.189" fill="#ffffff" data-original="#000000" style=""/>
			<path d="M67.731,358.477c-2.314,0-4.191,1.875-4.191,4.19c0,2.312,1.875,4.19,4.191,4.19c2.311,0,4.186-1.877,4.186-4.19     C71.918,360.352,70.041,358.477,67.731,358.477z" fill="#ffffff" data-original="#000000" style=""/>
			<circle cx="269.962" cy="165.508" r="4.19" fill="#ffffff" data-original="#000000" style=""/>
			<circle cx="445.856" cy="352.434" r="4.189" fill="#ffffff" data-original="#000000" style=""/>
			<circle cx="212.481" cy="244.389" r="4.19" fill="#ffffff" data-original="#000000" style=""/>
		</g>
	</g>
</g>
<g xmlns="http://www.w3.org/2000/svg">
</g>
<g xmlns="http://www.w3.org/2000/svg">
</g>
<g xmlns="http://www.w3.org/2000/svg">
</g>
<g xmlns="http://www.w3.org/2000/svg">
</g>
<g xmlns="http://www.w3.org/2000/svg">
</g>
<g xmlns="http://www.w3.org/2000/svg">
</g>
<g xmlns="http://www.w3.org/2000/svg">
</g>
<g xmlns="http://www.w3.org/2000/svg">
</g>
<g xmlns="http://www.w3.org/2000/svg">
</g>
<g xmlns="http://www.w3.org/2000/svg">
</g>
<g xmlns="http://www.w3.org/2000/svg">
</g>
<g xmlns="http://www.w3.org/2000/svg">
</g>
<g xmlns="http://www.w3.org/2000/svg">
</g>
<g xmlns="http://www.w3.org/2000/svg">
</g>
<g xmlns="http://www.w3.org/2000/svg">
</g>
</g></svg>
